# xmcd
#
# Track frame offsets:
#	150
#	10827
#	23970
#	37852
#	59435
#
# Disc length: 981 seconds
#
# Revision: 1
# Processed by: cddbd v1.5.1PL0 Copyright (c) Steve Scherf et al.
# Submitted via: audiograbber 1.80
#
DISCID=3303d305
DTITLE=Grownup Trouble - Hoon
DYEAR=1900
DGENRE=
TTITLE0=Converstaion
TTITLE1=Fables
TTITLE2=Doin' Fine
TTITLE3=Man Behind
TTITLE4=Devil
EXTD=
EXTT0=
EXTT1=
EXTT2=
EXTT3=
EXTT4=
PLAYORDER=
